<?xml version="1.0" encoding="utf-8"?>
<!-- Generator: Adobe Illustrator 20.0.0, SVG Export Plug-In . SVG Version: 6.00 Build 0)  -->
<svg version="1.1" id="Layer_1" xmlns="http://www.w3.org/2000/svg" xmlns:xlink="http://www.w3.org/1999/xlink" x="0px" y="0px"
	 viewBox="0 0 409.5 368" style="enable-background:new 0 0 409.5 368;" xml:space="preserve">
<style type="text/css">
	.st0{fill:#CC8640;}
	.st1{fill:#DFA839;}
	.st2{fill:#D9D9D9;}
	.st3{fill:#BC743F;}
	.st4{fill:#D3903E;}
	.st5{fill:#311900;}
	.st6{fill:#663300;}
	.st7{fill:#4F2800;}
	.st8{fill:#A7CBDF;}
	.st9{fill:#7DACD2;}
	.st10{fill:#E2F0F4;}
	.st11{fill:#C5E2EA;}
	.st12{fill:#FFFFFF;}
	.st13{fill:#F5FAFB;}
	.st14{fill:#A5C3E1;}
	.st15{fill:#8CB7D8;}
	.st16{fill:#D3E5EF;}
</style>
<title>icon__cookies-and-milk</title>
<g id="Layer_1_1_">
	<polygon class="st0" points="162.1,263.4 171.6,257.9 171.6,235.9 85.8,186.3 0,235.9 0,257.9 47.7,285.4 38.1,290.9 38.1,312.9 
		123.9,362.5 209.8,312.9 209.8,290.9 	"/>
	<path class="st1" d="M171.6,268.9L124,238.6l-76.3,46.8l-9.5,5.5l85.8,49.5l85.8-49.5L171.6,268.9z"/>
	<polygon class="st2" points="209.8,301.9 209.8,312.9 123.9,362.5 133.5,368 228.8,312.9 	"/>
	<polygon class="st0" points="38.1,290.9 38.1,312.9 123.9,362.5 123.9,340.5 	"/>
	<polygon class="st3" points="171.6,257.9 171.6,235.9 85.8,285.4 85.8,307.4 	"/>
	<polygon class="st4" points="162.1,263.4 85.8,307.4 95.3,312.9 171.6,268.9 	"/>
	<polygon class="st3" points="123.9,340.5 123.9,362.5 209.8,312.9 209.8,290.9 	"/>
	<polygon class="st5" points="162.1,318.5 162.1,329.5 171.6,324 171.6,312.9 	"/>
	<path class="st1" d="M85.8,285.4l85.8-49.6l-85.8-49.5L0,235.9L85.8,285.4z"/>
	<polygon class="st6" points="28.6,230.4 19.1,235.9 28.6,241.4 38.1,235.9 	"/>
	<polygon class="st6" points="85.8,197.3 76.3,191.8 66.7,197.3 76.3,202.8 	"/>
	<polygon class="st0" points="85.8,307.4 85.8,285.4 0,235.9 0,257.9 	"/>
	<polygon class="st6" points="85.8,230.4 76.3,235.9 85.8,241.4 95.3,235.9 	"/>
	<polygon class="st6" points="105.1,263.4 95.5,268.9 105.1,274.4 105.1,285.4 114.6,279.9 114.6,268.9 	"/>
	<polygon class="st6" points="104.9,318.5 114.4,324 123.9,318.5 114.4,312.9 	"/>
	<polygon class="st6" points="123.9,208.3 114.4,202.8 104.9,208.3 114.4,213.9 	"/>
	<polygon class="st6" points="123.9,241.4 133.5,246.9 143,241.4 133.5,235.9 	"/>
	<polygon class="st6" points="152.6,279.9 162.1,285.4 171.6,279.9 162.1,274.4 	"/>
	<polygon class="st6" points="152.6,312.9 162.1,318.5 171.6,312.9 162.1,307.4 	"/>
	<polygon class="st6" points="181.2,285.4 190.7,290.9 200.2,285.4 190.7,279.9 	"/>
	<polygon class="st7" points="47.7,252.4 38.1,257.9 38.1,268.9 47.7,274.4 47.7,263.4 57.2,257.9 	"/>
	<polygon class="st7" points="66.7,329.5 76.3,335 76.3,324 66.7,318.5 	"/>
	<polygon class="st5" points="104.9,285.4 114.4,279.9 114.4,268.9 104.9,274.4 	"/>
	<polygon class="st6" points="38.1,257.9 47.7,263.4 57.2,257.9 47.7,252.4 	"/>
	<polygon class="st8" points="295.4,0 209.8,49.4 209.8,280.1 295.4,329.5 381,280.1 381,49.4 	"/>
	<polygon class="st2" points="381,269.1 381,280.1 295.4,329.5 314.4,340.5 409.5,285.5 	"/>
	<polygon class="st9" points="228.8,49.4 247.8,60.4 295.4,33 295.4,11 	"/>
	<polygon class="st10" points="238.3,65.9 209.8,82.4 295.4,131.8 295.4,98.8 	"/>
	<polygon class="st11" points="209.8,82.4 209.8,280.1 295.4,329.5 295.4,131.8 	"/>
	<polygon class="st12" points="295.4,33 247.8,60.4 295.4,87.9 342.9,60.4 	"/>
	<polygon class="st13" points="342.9,60.4 295.4,87.9 247.8,60.4 238.3,65.9 295.4,98.8 352.4,65.9 	"/>
	<polygon class="st14" points="295.4,0 209.8,49.4 238.3,65.9 247.8,60.4 228.8,49.4 295.4,11 362,49.4 342.9,60.4 352.4,65.9 
		381,49.4 	"/>
	<polygon class="st15" points="209.8,49.4 209.8,82.4 238.3,65.9 	"/>
	<polygon class="st15" points="362,49.4 295.4,11 295.4,33 342.9,60.4 	"/>
	<polygon class="st15" points="352.4,65.9 381,82.4 381,49.4 	"/>
	<polygon class="st16" points="352.4,65.9 295.4,98.8 295.4,131.8 381,82.4 	"/>
	<polygon class="st8" points="295.4,131.8 295.4,329.5 381,280.1 381,82.4 	"/>
</g>
</svg>
